<?xml version="1.0" encoding="utf-8"?>
<!-- Generator: Adobe Illustrator 16.0.0, SVG Export Plug-In . SVG Version: 6.00 Build 0)  -->
<!DOCTYPE svg PUBLIC "-//W3C//DTD SVG 1.1//EN" "http://www.w3.org/Graphics/SVG/1.1/DTD/svg11.dtd">
<svg version="1.1" id="Capa_1" xmlns="http://www.w3.org/2000/svg" xmlns:xlink="http://www.w3.org/1999/xlink" x="0px" y="0px"
	 width="115px" height="110px" viewBox="0 0 115 110" enable-background="new 0 0 115 110" xml:space="preserve">
<path fill="#FFFFFF" d="M95.238,65.942c3.88-3.203,6.423-8.141,6.423-13.613c0-9.209-7.494-17.351-16.06-17.351
	c-8.564,0-16.059,8.142-16.059,17.351c0,5.473,2.542,10.41,6.424,13.613c-1.74,0.669-3.346,1.336-4.951,2.271
	c-5.086-6.008-11.775-10.68-19.537-12.947c5.888-4.139,10.035-11.212,10.035-18.953c0-12.146-10.035-22.689-21.41-22.689
	S18.691,24.168,18.691,36.313c0,7.741,4.147,14.814,10.037,18.953C12.133,60.204-0.043,75.553-0.043,93.706
	c0,1.467,1.204,2.67,2.676,2.67h109.735c1.471,0,2.675-1.203,2.675-2.67C115.043,80.892,106.746,69.948,95.238,65.942z
	 M74.896,52.329c0-5.604,4.685-12.013,10.705-12.013c6.022,0,10.707,6.407,10.707,12.013c0,5.606-4.685,12.012-10.707,12.012
	C79.581,64.34,74.896,57.936,74.896,52.329z M24.044,36.312c0-8.142,6.825-17.353,16.06-17.353c9.233,0,16.06,9.211,16.06,17.353
	c0,8.144-6.825,17.353-16.06,17.353S24.044,44.456,24.044,36.312z M5.443,91.036c1.338-17.886,16.459-32.031,34.66-32.031
	c18.332,0,33.32,14.146,34.658,32.031H5.443z M80.116,91.036c-0.401-6.674-2.543-13.08-6.022-18.418
	c3.479-1.869,7.36-2.938,11.51-2.938c12.444,0,22.617,9.344,23.953,21.354h-29.44V91.036z"/>
</svg>
