<?xml version="1.0" encoding="utf-8"?>
<!-- Generator: Adobe Illustrator 16.0.0, SVG Export Plug-In . SVG Version: 6.00 Build 0)  -->
<!DOCTYPE svg PUBLIC "-//W3C//DTD SVG 1.1//EN" "http://www.w3.org/Graphics/SVG/1.1/DTD/svg11.dtd">
<svg version="1.1" id="Capa_1" xmlns="http://www.w3.org/2000/svg" xmlns:xlink="http://www.w3.org/1999/xlink" x="0px" y="0px"
	 width="115px" height="110px" viewBox="0 0 115 110" enable-background="new 0 0 115 110" xml:space="preserve">
<g>
	<g>
		<path fill="#FFFFFF" d="M83.637,20.952c2.885,0,5.227-2.341,5.227-5.232V5.233C88.863,2.34,86.518,0,83.637,0
			c-2.886,0-5.228,2.34-5.228,5.232v10.486C78.409,18.61,80.756,20.952,83.637,20.952z M104.545,31.428h-94.09v5.238h94.09V31.428z
			 M30.057,20.952h2.613c2.164,0,3.92-1.75,3.92-3.938V3.939C36.59,1.766,34.839,0,32.67,0h-2.613c-2.164,0-3.92,1.75-3.92,3.938
			v13.069C26.137,19.187,27.889,20.952,30.057,20.952z M73.182,10.476H41.818v5.237h31.363V10.476z M47.045,94.284V52.379h-4.208
			c-0.753,2.845-1.887,4.652-3.407,5.412c-1.527,0.765-4.214,1.31-8.066,1.633v3.548h10.586v31.313h5.096V94.284z M94.091,10.476
			v5.237h15.683v89.048H5.227V15.713h15.683v-5.237H0v94.285c0,5.237,5.75,5.237,5.75,5.237h104.021c0,0,5.229,0,5.229-5.237V10.476
			H94.091L94.091,10.476z M70.464,52.379c-5.446,0-9.216,3.097-11.296,9.287c-1.113,3.32-1.668,7.303-1.668,11.938
			c0,5.981,0.926,10.748,2.775,14.3c2.222,4.254,5.608,6.381,10.162,6.381c5.045,0,8.678-2.604,10.897-7.806
			c1.531-3.63,2.301-8.213,2.301-13.76c0-5.853-0.848-10.455-2.54-13.818C78.911,54.554,75.367,52.379,70.464,52.379z
			 M76.234,85.642c-1.447,2.269-3.394,3.403-5.84,3.403c-3.037,0-5.185-1.858-6.438-5.572c-0.821-2.432-1.229-5.65-1.229-9.659
			c0-5.325,0.645-9.354,1.924-12.089c1.287-2.739,3.313-4.105,6.084-4.105c3.021,0,5.056,1.438,6.102,4.32
			c1.045,2.881,1.568,6.559,1.568,11.021C78.409,79.146,77.684,83.374,76.234,85.642z"/>
	</g>
</g>
</svg>
