<?xml version="1.0" encoding="utf-8"?>
<!-- Generator: Adobe Illustrator 16.0.0, SVG Export Plug-In . SVG Version: 6.00 Build 0)  -->
<!DOCTYPE svg PUBLIC "-//W3C//DTD SVG 1.1//EN" "http://www.w3.org/Graphics/SVG/1.1/DTD/svg11.dtd">
<svg version="1.1" id="Capa_1" xmlns="http://www.w3.org/2000/svg" xmlns:xlink="http://www.w3.org/1999/xlink" x="0px" y="0px"
	 width="115px" height="110px" viewBox="0 0 115 110" enable-background="new 0 0 115 110" xml:space="preserve">
<path fill="#FFFFFF" d="M74.686,58.438H40.314c-1.896,0-3.437,1.539-3.437,3.437s1.54,3.438,3.437,3.438h34.371
	c1.896,0,3.438-1.539,3.438-3.438C78.122,59.977,76.582,58.438,74.686,58.438z M81.561,37.815H33.441
	c-1.897,0-3.438,1.54-3.438,3.437c0,1.897,1.54,3.438,3.438,3.438h48.119c1.896,0,3.437-1.54,3.437-3.438
	C84.997,39.355,83.456,37.815,81.561,37.815z M57.5,0.007c-30.369,0-54.992,21.543-54.992,48.119
	c0,15.188,8.061,28.709,20.622,37.527v24.338l24.091-14.617c3.334,0.549,6.764,0.869,10.279,0.869
	c30.373,0,54.992-21.543,54.992-48.117C112.492,21.55,87.873,0.007,57.5,0.007z M57.5,89.369c-4.014,0-7.891-0.467-11.618-1.26
	l-16.181,9.727l0.217-15.94C17.514,74.434,9.382,62.102,9.382,48.126c0-22.777,21.543-41.244,48.118-41.244
	s48.118,18.467,48.118,41.244C105.618,70.902,84.075,89.369,57.5,89.369z"/>
</svg>
