<?xml version="1.0" encoding="utf-8"?>
<!-- Generator: Adobe Illustrator 16.0.0, SVG Export Plug-In . SVG Version: 6.00 Build 0)  -->
<!DOCTYPE svg PUBLIC "-//W3C//DTD SVG 1.1//EN" "http://www.w3.org/Graphics/SVG/1.1/DTD/svg11.dtd">
<svg version="1.1" id="Capa_1" xmlns="http://www.w3.org/2000/svg" xmlns:xlink="http://www.w3.org/1999/xlink" x="0px" y="0px"
	 width="115px" height="110px" viewBox="0 0 115 110" enable-background="new 0 0 115 110" xml:space="preserve">
<g>
	<g>
		<path fill="#FFFFFF" d="M57.5,0.007c-20.66,0-37.471,16.746-37.471,37.328c0,8.271,4.89,20.849,15.385,39.584
			c7.16,12.783,14.289,23.58,14.59,24.037l5.152,7.779c0.52,0.783,1.398,1.256,2.344,1.256c0.943,0,1.824-0.473,2.343-1.256
			l5.152-7.779c0.297-0.451,7.375-11.154,14.59-24.037c10.496-18.735,15.385-31.313,15.385-39.584
			C94.971,16.751,78.16,0.007,57.5,0.007z M74.684,74.193c-7.115,12.701-14.08,23.238-14.375,23.682l-2.808,4.244l-2.809-4.242
			c-0.295-0.446-7.313-11.078-14.375-23.684c-9.735-17.379-14.672-29.779-14.672-36.859c0-17.498,14.289-31.732,31.854-31.732
			c17.563,0,31.854,14.236,31.854,31.732C89.354,44.414,84.418,56.814,74.684,74.193z M57.5,16.406
			c-11.455,0-20.773,9.284-20.773,20.696S46.045,57.796,57.5,57.796c11.455,0,20.773-9.283,20.773-20.694S68.955,16.406,57.5,16.406
			z M57.5,52.205c-8.359,0-15.16-6.774-15.16-15.103S49.141,22,57.5,22c8.359,0,15.16,6.774,15.16,15.103S65.859,52.205,57.5,52.205
			z"/>
	</g>
</g>
</svg>
