<?xml version="1.0" encoding="utf-8"?>
<!-- Generator: Adobe Illustrator 16.0.0, SVG Export Plug-In . SVG Version: 6.00 Build 0)  -->
<!DOCTYPE svg PUBLIC "-//W3C//DTD SVG 1.1//EN" "http://www.w3.org/Graphics/SVG/1.1/DTD/svg11.dtd">
<svg version="1.1" id="Capa_1" xmlns="http://www.w3.org/2000/svg" xmlns:xlink="http://www.w3.org/1999/xlink" x="0px" y="0px"
	 width="500px" height="500px" viewBox="-192.5 -195 500 500" style="enable-background:new -192.5 -195 500 500;"
	 xml:space="preserve">
<g>
	<g>
		<path d="M171.1-93c12.5,0,22.7-10.2,22.7-22.7v-45.6c0-12.6-10.2-22.8-22.7-22.8c-12.5,0-22.7,10.2-22.7,22.7v45.6
			C148.4-103.2,158.6-93,171.1-93z M262-47.5H-147v22.8H262V-47.5z M-61.8-93h11.4c9.4,0,17-7.6,17-17.1V-167
			c0-9.4-7.6-17.1-17-17.1h-11.4c-9.4,0-17,7.6-17,17.1v56.8C-78.9-100.7-71.2-93-61.8-93z M125.7-138.6H-10.7v22.8h136.4V-138.6
			L125.7-138.6z M12,225.8V43.6H-6.3C-9.5,56-14.5,63.8-21.1,67.1c-6.6,3.3-18.3,5.7-35.1,7.1v15.4h46v136.1L12,225.8L12,225.8
			L12,225.8z M216.6-138.6v22.8h68.2v387.2h-454.5v-387.2h68.2v-22.8h-90.9v409.9c0,22.8,25,22.8,25,22.8h452.3
			c0,0,22.7,0,22.7-22.8v-409.9H216.6L216.6-138.6z M113.9,43.6c-23.7,0-40.1,13.5-49.1,40.4c-4.8,14.4-7.3,31.8-7.3,51.9
			c0,26,4,46.7,12.1,62.2c9.7,18.5,24.4,27.7,44.2,27.7c21.9,0,37.7-11.3,47.4-33.9c6.7-15.8,10-35.7,10-59.8
			c0-25.4-3.7-45.5-11-60.1C150.6,53.1,135.2,43.6,113.9,43.6z M139,188.2c-6.3,9.9-14.8,14.8-25.4,14.8c-13.2,0-22.5-8.1-28-24.2
			c-3.6-10.6-5.3-24.6-5.3-42c0-23.2,2.8-40.7,8.4-52.6C94.2,72.3,103,66.4,115,66.4c13.1,0,22,6.3,26.5,18.8
			c4.5,12.5,6.8,28.5,6.8,47.9C148.4,160,145.3,178.4,139,188.2z"/>
	</g>
</g>
</svg>
