<?xml version="1.0" encoding="utf-8"?>
<!-- Generator: Adobe Illustrator 16.0.0, SVG Export Plug-In . SVG Version: 6.00 Build 0)  -->
<!DOCTYPE svg PUBLIC "-//W3C//DTD SVG 1.1//EN" "http://www.w3.org/Graphics/SVG/1.1/DTD/svg11.dtd">
<svg version="1.1" id="Capa_1" xmlns="http://www.w3.org/2000/svg" xmlns:xlink="http://www.w3.org/1999/xlink" x="0px" y="0px"
	 width="115px" height="110px" viewBox="0 0 115 110" enable-background="new 0 0 115 110" xml:space="preserve">
<g>
	<path fill="#FFFFFF" d="M6.732,100.82c-3.736,0-6.775-3.025-6.775-6.742V15.921c0-3.716,3.04-6.741,6.775-6.741h85.684
		c3.736,0,6.776,3.024,6.776,6.741c0,0-0.01,40.563-0.001,55.936c2.957-11.037,10.377-39.051,10.454-39.343
		c0.051-0.236,0.029-0.445-0.063-0.559c-0.091-0.111-0.292-0.176-0.551-0.176h-3.742c-0.63,0-1.688-0.293-1.688-1.393v-2.563
		c0-1.098,1.054-1.391,1.677-1.391h3.753c1.888,0,3.609,0.787,4.725,2.159c1.119,1.373,1.534,3.214,1.142,5.051L99.569,94.892
		c-0.326,1.523-0.908,2.604-1.729,3.197c-1.214,1.686-3.266,2.73-5.425,2.73H6.732z M6.732,14.526c-0.76,0-1.403,0.639-1.403,1.394
		v78.158c0,0.768,0.629,1.393,1.403,1.393h85.684c0.774,0,1.404-0.625,1.404-1.393V15.92c0-0.755-0.644-1.394-1.404-1.394H6.732z
		 M16.099,83.558c-0.809,0-1.467-0.656-1.467-1.463v-2.424c0-0.805,0.659-1.461,1.467-1.461h67.519c0.81,0,1.468,0.656,1.468,1.461
		v2.424c0,0.807-0.658,1.463-1.468,1.463H16.099z M16.099,66.558c-0.809,0-1.467-0.656-1.467-1.461v-2.424
		c0-0.807,0.659-1.463,1.467-1.463h67.519c0.81,0,1.468,0.656,1.468,1.463v2.424c0,0.805-0.658,1.461-1.468,1.461H16.099z
		 M62.001,49.559c-0.809,0-1.466-0.656-1.466-1.462v-2.424c0-0.807,0.657-1.463,1.466-1.463h21.563c0.809,0,1.467,0.656,1.467,1.463
		v2.424c0,0.806-0.658,1.462-1.467,1.462H62.001z M15.651,49.559c-1.026,0-1.862-0.833-1.862-1.854V29.066
		c0-1.023,0.836-1.856,1.862-1.856h33.146c1.027,0,1.863,0.833,1.863,1.856v18.638c0,1.022-0.836,1.854-1.863,1.854H15.651z
		 M62.001,32.56c-0.809,0-1.466-0.656-1.466-1.462v-2.423c0-0.807,0.657-1.463,1.466-1.463h21.563c0.809,0,1.467,0.657,1.467,1.463
		v2.423c0,0.806-0.658,1.462-1.467,1.462H62.001z"/>
	<path fill="#FFFFFF" d="M48.754,49.248c0.875,0,1.589-0.711,1.589-1.58V28.938c0-0.87-0.714-1.581-1.589-1.581H15.445
		c-0.873,0-1.588,0.711-1.588,1.581v18.729c0,0.869,0.715,1.58,1.588,1.58H48.754z M83.746,78.607H15.895
		c-0.654,0-1.19,0.534-1.19,1.186v2.437c0,0.651,0.536,1.187,1.19,1.187h67.852c0.654,0,1.191-0.533,1.191-1.187v-2.437
		C84.938,79.142,84.4,78.607,83.746,78.607z M83.746,61.524H15.895c-0.656,0-1.19,0.533-1.19,1.187v2.436
		c0,0.652,0.536,1.186,1.19,1.186h67.852c0.654,0,1.191-0.533,1.191-1.186V62.71C84.938,62.058,84.4,61.524,83.746,61.524z
		 M62.023,32.166h21.668c0.656,0,1.191-0.535,1.191-1.186v-2.436c0-0.652-0.535-1.187-1.191-1.187H62.023
		c-0.654,0-1.19,0.534-1.19,1.187v2.436C60.833,31.63,61.369,32.166,62.023,32.166z M62.023,49.248h21.668
		c0.656,0,1.191-0.533,1.191-1.186v-2.436c0-0.652-0.535-1.187-1.191-1.187H62.023c-0.654,0-1.19,0.533-1.19,1.187v2.436
		C60.833,48.714,61.369,49.248,62.023,49.248z M113.814,28.638c-1.067-1.313-2.719-2.064-4.528-2.064h-3.761
		c0,0-1.412-0.031-1.412,1.114c0,0.644,0,1.933,0,2.576c0,1.135,1.412,1.116,1.412,1.116h3.761c0.351,0,0.625,0.1,0.774,0.283
		c0.147,0.184,0.189,0.471,0.116,0.812c0,0-8.063,30.444-10.815,40.692c-0.031,0.121-0.247,0.07-0.247-0.08
		c-0.011-14.461,0-57.359,0-57.359c0-3.579-2.929-6.49-6.526-6.49H6.482c-3.599,0-6.525,2.911-6.525,6.49V94.27
		c0,3.579,2.928,6.491,6.525,6.491h86.105c2.172,0,4.098-1.063,5.285-2.689c0.766-0.554,1.313-1.572,1.628-3.053l15.403-61.543
		C115.281,31.714,114.884,29.951,113.814,28.638z M94.282,94.269c0,0.928-0.761,1.684-1.694,1.684H6.482
		c-0.934,0-1.693-0.756-1.693-1.684V15.727c0-0.913,0.775-1.685,1.693-1.685h86.105c0.919,0,1.694,0.771,1.694,1.685V94.269z"/>
</g>
</svg>
