<?xml version="1.0" encoding="utf-8"?>
<!-- Generator: Adobe Illustrator 16.0.0, SVG Export Plug-In . SVG Version: 6.00 Build 0)  -->
<!DOCTYPE svg PUBLIC "-//W3C//DTD SVG 1.1//EN" "http://www.w3.org/Graphics/SVG/1.1/DTD/svg11.dtd">
<svg version="1.1" id="Capa_1" xmlns="http://www.w3.org/2000/svg" xmlns:xlink="http://www.w3.org/1999/xlink" x="0px" y="0px"
	 width="115px" height="110px" viewBox="0 0 115 110" enable-background="new 0 0 115 110" xml:space="preserve">
<g>
	<g>
		<path fill="#FFFFFF" d="M47.599,109.992c-4.207,0-7.741-3.067-8.046-6.98l-1.53-9.789c-1.24-0.634-2.759-1.443-4.274-2.402
			L23.65,94.791c-1,0.328-1.976,0.486-2.947,0.486c-2.208,0-4.248-0.813-5.746-2.284l-0.534-0.526L3.843,74.208
			c-1.708-3.343-1.127-6.877,1.53-9.493l0.4-0.357l8.085-6.446c-0.051-0.886-0.051-1.752-0.051-2.663
			c0-0.953,0.079-1.782,0.165-2.455l-8.556-6.471l-0.039-0.038c-1.792-1.764-2.864-4.137-2.866-6.347
			C2.51,38.58,2.903,37.3,3.649,36.236L13.92,18.527l0.53-0.521c0.698-0.688,2.823-2.786,6.309-2.786
			c0.938,0,1.896,0.158,2.846,0.47l0.349,0.129l9.388,3.854c1.364-0.922,2.723-1.808,4.186-2.572l1.531-10.176
			c0.353-4.116,4.442-6.917,8.037-6.917h20.173c2.455,0,4.873,1.25,6.314,3.262c1.007,1.405,1.475,3.109,1.326,4.812l1.437,9.196
			c1.244,0.637,2.768,1.449,4.274,2.401l10.099-3.971c1.001-0.33,1.98-0.489,2.954-0.489c2.204,0,4.242,0.813,5.741,2.291
			l0.528,0.523l10.588,18.271c1.695,3.338,1.114,6.865-1.529,9.476l-0.404,0.36l-8.087,6.451c0.052,0.881,0.052,1.748,0.052,2.657
			c0,0.743-0.047,1.483-0.144,2.293l8.647,5.93c1.393,0.815,2.487,2.178,3.032,3.809c0.671,2.011,0.471,4.396-0.535,6.383
			l-0.137,0.253L101.37,91.249c-1.321,2.44-4.065,4.03-6.978,4.03c-1.059,0-2.121-0.222-3.073-0.64L81.63,90.82
			c-1.509,0.956-3.032,1.768-4.274,2.403l-1.544,9.879c-0.363,4.099-4.45,6.89-8.035,6.89H47.599z M35.003,83.91
			c2.447,1.932,5.479,3.424,8.411,4.868l0.39,0.192l0.084,0.438l2.027,12.985v0.065c0,0.481,0.585,1.148,1.684,1.148h20.175
			c0.679,0,1.687-0.752,1.687-1.148v-0.065l2.097-13.415l0.39-0.192c2.937-1.446,5.973-2.942,8.425-4.877l0.378-0.298l13.059,5.147
			c0.207,0.098,0.387,0.136,0.583,0.136c0.582,0,1.18-0.314,1.393-0.731l10.107-17.436c0.216-0.423,0.287-1.025,0.154-1.426
			c-0.083-0.248-0.212-0.335-0.302-0.379l-0.056-0.027l-12.014-8.237v-0.441c0-0.756,0.113-1.481,0.233-2.251
			c0.132-0.844,0.269-1.715,0.269-2.717c0-1.94,0-3.342-0.458-4.7l-0.188-0.557l11.051-8.815c0.589-0.585,0.686-1.147,0.28-1.947
			L94.861,21.989c-0.202-0.172-0.579-0.396-1.168-0.396c-0.29,0-0.605,0.056-0.937,0.164l-13.015,5.128l-0.378-0.298
			c-2.455-1.935-5.49-3.429-8.427-4.874l-0.39-0.192L68.432,7.967l0.065-0.193c0.1-0.298,0.066-0.548-0.105-0.787
			c-0.264-0.367-0.786-0.594-1.119-0.594H47.097c-0.678,0-1.685,0.755-1.685,1.151v0.063l-2.105,13.99l-0.491,0.16
			c-2.298,0.754-4.278,2.1-6.569,3.658c-0.587,0.399-1.187,0.807-1.808,1.215l-0.369,0.242l-12.515-5.136
			c-0.257-0.083-0.537-0.133-0.8-0.133c-0.589,0-1.1,0.254-1.746,0.87L8.923,39.866l-0.029,0.028c-0.031,0.262,0.22,1.09,0.922,1.8
			l10.878,8.168v0.418c0,0.756-0.114,1.483-0.235,2.253c-0.132,0.844-0.269,1.716-0.269,2.715c0,1.939,0,3.342,0.459,4.7
			l0.188,0.557L9.789,69.32c-0.591,0.587-0.689,1.148-0.283,1.948l10.004,17.243c0.2,0.171,0.575,0.394,1.167,0.394
			c0.291,0,0.607-0.055,0.938-0.163l13.011-5.13L35.003,83.91z M57.503,74.675C46.655,74.675,37.83,65.848,37.83,55
			c0-10.848,8.825-19.673,19.673-19.673c10.848,0,19.675,8.825,19.675,19.673C77.178,65.848,68.351,74.675,57.503,74.675z
			 M57.503,41.459c-7.467,0-13.542,6.073-13.542,13.54s6.074,13.541,13.542,13.541c7.466,0,13.539-6.074,13.539-13.541
			S64.969,41.459,57.503,41.459z"/>
		<path fill="#FFFFFF" d="M57.503,36.164c-10.402,0-18.836,8.435-18.836,18.836s8.434,18.838,18.836,18.838
			c10.4,0,18.837-8.437,18.837-18.838S67.903,36.164,57.503,36.164z M57.503,69.377c-7.94,0-14.379-6.436-14.379-14.378
			c0-7.939,6.439-14.378,14.379-14.378c7.938,0,14.376,6.438,14.376,14.378C71.879,62.941,65.439,69.377,57.503,69.377z
			 M111.304,67.543c-0.484-1.446-1.438-2.635-2.712-3.383l-9.071-6.221c0.109-0.774,0.203-1.671,0.203-2.692
			c0-1.028,0-2.033-0.078-3.039l8.395-6.695l0.372-0.33c2.373-2.342,2.893-5.504,1.394-8.46L99.274,18.55l-0.449-0.444
			c-1.949-1.924-4.919-2.565-7.8-1.619l-10.496,4.127c-1.602-1.038-3.272-1.937-4.945-2.785l-1.518-9.723
			c0.157-1.533-0.242-3.063-1.164-4.349c-1.286-1.797-3.444-2.912-5.634-2.912H47.095c-3.264,0-6.9,2.621-7.208,6.204L38.292,17.65
			c-1.735,0.869-3.315,1.923-4.853,2.968l-9.776-4.015l-0.319-0.118c-0.867-0.284-1.739-0.428-2.585-0.428
			c-3.139,0-5.082,1.914-5.721,2.545l-0.449,0.442L4.335,36.717c-0.643,0.916-0.988,2.029-0.987,3.219
			c0.002,1.99,0.98,4.141,2.616,5.751l8.903,6.733c-0.117,0.806-0.223,1.748-0.223,2.827c0,1.031,0,2.034,0.079,3.045L6.33,64.982
			l-0.37,0.329c-2.383,2.347-2.903,5.517-1.393,8.477l10.525,18.161l0.452,0.446c1.949,1.917,4.92,2.555,7.799,1.617l10.496-4.128
			c1.6,1.038,3.271,1.938,4.944,2.785l1.604,10.276c0.27,3.463,3.402,6.208,7.211,6.208h20.177c3.261,0,6.89-2.612,7.208-6.181
			l1.609-10.302c1.673-0.848,3.345-1.748,4.945-2.787l10.116,3.988c0.846,0.371,1.786,0.568,2.737,0.568
			c2.626,0,5.061-1.412,6.253-3.612l10.044-17.314l0.126-0.231C111.724,71.491,111.905,69.348,111.304,67.543z M106.617,71.148
			L96.53,88.543c-0.507,0.994-2.019,1.489-3.028,0.994l-12.611-4.97c-2.521,1.989-5.547,3.479-8.573,4.97l-2.02,12.922
			c0,0.992-1.514,1.986-2.523,1.986H47.599c-1.513,0-2.521-0.994-2.521-1.986l-2.017-12.922c-3.026-1.49-6.056-2.98-8.577-4.97
			l-12.61,4.97c-1.513,0.495-2.523,0-3.027-0.498L8.759,71.647c-0.504-0.993-0.504-1.989,0.508-2.981l10.59-8.45
			c-0.504-1.488-0.504-2.976-0.504-4.968c0-1.986,0.504-3.479,0.504-4.968l-10.59-7.951c-1.012-0.994-1.516-2.484-1.012-2.98
			l10.09-17.394c1.008-0.993,2.017-1.49,3.53-0.993L33.98,25.93c3.025-1.987,5.547-3.976,8.576-4.969l2.019-13.417
			c0-0.996,1.513-1.989,2.522-1.989h20.175c1.009,0,2.52,0.993,2.018,2.485l2.018,12.921c3.028,1.491,6.054,2.981,8.575,4.969
			l12.612-4.969c1.511-0.496,2.521,0,3.026,0.497l10.089,17.394c0.501,0.992,0.501,1.987-0.506,2.98l-10.593,8.449
			c0.502,1.488,0.502,2.98,0.502,4.968c0,1.99-0.502,3.479-0.502,4.968l11.6,7.954C107.123,68.666,107.123,70.157,106.617,71.148z"
			/>
	</g>
</g>
</svg>
