<?xml version="1.0" encoding="UTF-8" standalone="no"?>
<!-- Generator: Adobe Illustrator 18.1.1, SVG Export Plug-In . SVG Version: 6.00 Build 0)  -->

<svg
   xmlns:dc="http://purl.org/dc/elements/1.1/"
   xmlns:cc="http://creativecommons.org/ns#"
   xmlns:rdf="http://www.w3.org/1999/02/22-rdf-syntax-ns#"
   xmlns:svg="http://www.w3.org/2000/svg"
   xmlns="http://www.w3.org/2000/svg"
   xmlns:sodipodi="http://sodipodi.sourceforge.net/DTD/sodipodi-0.dtd"
   xmlns:inkscape="http://www.inkscape.org/namespaces/inkscape"
   version="1.1"
   x="0px"
   y="0px"
   width="1000px"
   height="1000px"
   viewBox="0 0 1000 1000"
   style="enable-background:new 0 0 1000 1000;"
   xml:space="preserve"
   id="svg2"
   inkscape:version="0.48.5 r10040"
   sodipodi:docname="logo_slogan.svg"><metadata
     id="metadata127"><rdf:RDF><cc:Work
         rdf:about=""><dc:format>image/svg+xml</dc:format><dc:type
           rdf:resource="http://purl.org/dc/dcmitype/StillImage" /><dc:title></dc:title></cc:Work></rdf:RDF></metadata><defs
     id="defs125" /><sodipodi:namedview
     pagecolor="#ffffff"
     bordercolor="#666666"
     borderopacity="1"
     objecttolerance="10"
     gridtolerance="10"
     guidetolerance="10"
     inkscape:pageopacity="0"
     inkscape:pageshadow="2"
     inkscape:window-width="640"
     inkscape:window-height="480"
     id="namedview123"
     showgrid="false"
     inkscape:zoom="0.236"
     inkscape:cx="493.45968"
     inkscape:cy="500"
     inkscape:window-x="30"
     inkscape:window-y="17"
     inkscape:window-maximized="0"
     inkscape:current-layer="svg2" /><style
     type="text/css"
     id="style4">
	.st0{opacity:0.8;}
	.st1{opacity:0.3;fill:#4AC0E9;}
	.st2{opacity:0.7;fill:none;stroke:#FFFFFF;stroke-width:2.5654;stroke-miterlimit:10;}
	.st3{opacity:0.5;fill:#D5E9D8;}
	.st4{fill:#FFFFFF;}
</style><g
     id="circles"><g
       class="st0"
       id="g7"><circle
         class="st1"
         cx="520.8"
         cy="416.8"
         r="230.9"
         id="circle9" /><circle
         class="st2"
         cx="520.8"
         cy="416.8"
         r="230.9"
         id="circle11" /><circle
         class="st1"
         cx="520.8"
         cy="416.8"
         r="165.5"
         id="circle13" /><circle
         class="st2"
         cx="520.8"
         cy="416.8"
         r="165.5"
         id="circle15" /><circle
         class="st3"
         cx="520.8"
         cy="416.8"
         r="106.1"
         id="circle17" /><circle
         class="st2"
         cx="520.8"
         cy="416.8"
         r="106.1"
         id="circle19" /></g></g><g
     id="company_x5F_name"><g
       id="g103"><path
         class="st4"
         d="M218,488l-20.3,26.5c-13.2-14.8-28-27.4-54.7-27.4c-38,0-62.1-26.7-62.1-74.2c0-46.5,24.1-74.6,64.2-74.6    c40.3,0,64.4,27.1,64.4,74.6c0,34.5-16,52.4-33.5,62.1C194.4,475,206.5,479.8,218,488z M145,463.1c19.3,0,29-14,29-50.2    c0-36-9.9-50-29-50c-18.9,0-28.8,14-28.8,50C116.2,449.1,126.5,463.1,145,463.1z"
         id="path105" /><path
         class="st4"
         d="M292.6,484.3l-1.4-13.8c-8,11.5-18.7,17.3-33.1,17.3c-20.4,0-30.4-13.2-30.4-34.3v-78.4h32.5v74.2    c0,11.1,3.7,14.4,10.5,14.4c6.8,0,13-4.5,17.7-12.7v-75.9h32.5v109.2H292.6z"
         id="path107" /><path
         class="st4"
         d="M381.6,336c0,10.5-8,18.5-19.3,18.5c-11.3,0-19.1-8-19.1-18.5s7.8-18.5,19.1-18.5    C373.6,317.5,381.6,325.5,381.6,336z M346.2,484.3V375.1h32.5v109.2H346.2z"
         id="path109" /><path
         class="st4"
         d="M404.2,484.3V331.7l32.5-3.5v156.1H404.2z M506.8,484.3h-36.6l-32.5-59.6l33.3-49.6h33.1L471,423L506.8,484.3    z"
         id="path111" /><path
         class="st4"
         d="M522.4,484.3V341.8h33.7v142.5H522.4z"
         id="path113" /><path
         class="st4"
         d="M676.4,404.5v79.8h-32.5v-74.2c0-11.5-3.9-14.6-10.3-14.6c-7.2,0-13.2,5.1-18.9,14.2v74.6h-32.5V375.1h28.4    l2.3,13c9.3-10.9,19.7-16.4,33.3-16.4C665.1,371.6,676.4,383.7,676.4,404.5z"
         id="path115" /><path
         class="st4"
         d="M735.6,487.8c-24.1-0.2-35.8-13.8-35.8-39.5v-50.6h-15.4v-22.6h15.4v-23.6l32.5-3.7v27.4h25.1l-3.5,22.6    h-21.6v50.2c0,10.5,3.5,14.2,10.3,14.2c3.7,0,7.4-1,11.7-3.7l10.9,20.8C757,484.9,745.4,487.8,735.6,487.8z"
         id="path117" /><path
         class="st4"
         d="M850.3,373.5l-5.1,31.5c-3.5-0.8-6.2-1.4-9.9-1.4c-13.6,0-19.1,10.1-22.6,26.7v54.1h-32.5V375.1h28.4    l2.7,21.2c4.9-15.2,15.6-24.3,28.2-24.3C843.5,372,846.8,372.4,850.3,373.5z"
         id="path119" /><path
         class="st4"
         d="M961.3,429.8c0,35-20.2,58-53.5,58c-33.1,0-53.5-21.4-53.5-58.2c0-35,20.1-58,53.5-58S961.3,393,961.3,429.8z     M888.1,429.6c0,24.3,6.6,34.3,19.7,34.3s19.7-10.5,19.7-34.1c0-24.3-6.6-34.3-19.7-34.3S888.1,405.9,888.1,429.6z"
         id="path121" /></g></g></svg>