<?xml version="1.0" encoding="utf-8"?>
<!-- Generator: Adobe Illustrator 18.1.1, SVG Export Plug-In . SVG Version: 6.00 Build 0)  -->
<svg version="1.1" xmlns="http://www.w3.org/2000/svg" xmlns:xlink="http://www.w3.org/1999/xlink" x="0px" y="0px" width="1000px"
	 height="1000px" viewBox="0 0 1000 1000" style="enable-background:new 0 0 1000 1000;" xml:space="preserve">
<style type="text/css">
	.st0{opacity:0.8;}
	.st1{opacity:0.3;fill:#4AC0E9;}
	.st2{opacity:0.7;fill:none;stroke:#FFFFFF;stroke-width:2.5654;stroke-miterlimit:10;}
	.st3{opacity:0.5;fill:#D5E9D8;}
	.st4{fill:#FFFFFF;}
</style>
<g id="circles">
	<g class="st0">
		<circle class="st1" cx="520.8" cy="416.8" r="230.9"/>
		<circle class="st2" cx="520.8" cy="416.8" r="230.9"/>
		<circle class="st1" cx="520.8" cy="416.8" r="165.5"/>
		<circle class="st2" cx="520.8" cy="416.8" r="165.5"/>
		<circle class="st3" cx="520.8" cy="416.8" r="106.1"/>
		<circle class="st2" cx="520.8" cy="416.8" r="106.1"/>
	</g>
</g>
<g id="slogan">
	<g>
		<path class="st4" d="M73.5,728.4l-1.9-18.2c-0.7-6.1-1.4-13.1-1.6-16.5L59.4,724h-3.5L45,693.7c-0.2,3.8-0.9,10.6-1.4,16.4
			l-1.8,18.3h-3.5l4-37.9h5.1l10.4,29.6l10.1-29.6H73l4.1,37.9H73.5z"/>
		<path class="st4" d="M110.6,715.2H89.2c0.4,7.9,4.5,11.1,10,11.1c3.5,0,5.8-1,8.7-2.9l1.7,2c-3,2.2-6.3,3.5-10.5,3.5
			c-8.5,0-13.6-5.5-13.6-14.8c0-9.2,5-15.3,12.8-15.3c8.4,0,12.5,5.5,12.5,14C110.8,713.8,110.7,714.7,110.6,715.2z M107.3,711.9
			c0-6.3-2.8-10.3-8.9-10.3c-5,0-8.8,3.3-9.2,11.2h18.1V711.9z"/>
		<path class="st4" d="M143.7,726.8l-0.8,2.3c-2.8-0.5-4.5-1.8-5-4.9c-2.3,3.3-5.7,4.9-10,4.9c-6.2,0-10-3.5-10-8.6
			c0-6.1,5.1-9.4,13.3-9.4h6.1v-2.8c0-4.6-2.1-6.6-7.4-6.6c-2.6,0-5.5,0.6-8.7,1.7l-0.9-2.4c3.6-1.3,6.8-1.9,10.1-1.9
			c7.3,0,10.5,3.3,10.5,9.2V722C141,725.2,142,726.2,143.7,726.8z M137.4,721.3v-8h-5.6c-6.5,0-10.1,2.3-10.1,6.9
			c0,4,2.5,6.2,6.8,6.2C132.6,726.4,135.4,724.6,137.4,721.3z"/>
		<path class="st4" d="M177.1,707.7v20.7h-3.6v-20.3c0-4.8-2.1-6.7-6.1-6.7c-4.4,0-7.3,2.4-10,6v21h-3.6v-28.9h3.1l0.4,4.9
			c2.5-3.3,6.1-5.5,10.8-5.5C174,698.9,177.1,702.1,177.1,707.7z"/>
		<path class="st4" d="M194.2,689.1c0,1.3-1,2.3-2.7,2.3c-1.6,0-2.6-1.1-2.6-2.3c0-1.3,1-2.3,2.6-2.3
			C193.2,686.8,194.2,687.8,194.2,689.1z M189.8,728.4v-28.9h3.6v28.9H189.8z"/>
		<path class="st4" d="M229.6,707.7v20.7H226v-20.3c0-4.8-2.1-6.7-6.1-6.7c-4.4,0-7.3,2.4-10,6v21h-3.6v-28.9h3.1l0.4,4.9
			c2.5-3.3,6.1-5.5,10.8-5.5C226.4,698.9,229.6,702.1,229.6,707.7z"/>
		<path class="st4" d="M257.3,700.9c3.4,1.4,5.5,3.9,5.5,7.9c0,5.6-4.4,9.5-11.6,9.5c-1.5,0-2.9-0.2-4.2-0.6c-1.5,0.8-2.5,2-2.5,3.3
			c0,1.7,1.2,3,5.1,3h5.2c6.4,0,10.3,3.1,10.3,7.4c0,5.2-4.5,8.3-13.9,8.3c-9.7,0-13.4-2.5-13.4-8.3h3.3c0.1,4,2.4,5.6,10.1,5.6
			c7.5,0,10.3-2,10.3-5.5c0-3.1-2.7-4.8-7.2-4.8H249c-5.3,0-7.9-2.3-7.9-5.1c0-1.9,1.3-3.7,3.5-4.9c-3.7-1.7-5.4-4.3-5.4-8.1
			c0-5.8,4.7-9.8,11.8-9.8c8.6,0.1,10.9-0.7,14.1-1.9l1.1,3.1C264,700.7,261.2,700.9,257.3,700.9z M242.9,708.7
			c0,4.6,3.2,7.3,8.1,7.3c5.2,0,8.1-2.7,8.1-7.2c0-4.5-2.6-7.4-8.1-7.4C245.5,701.4,242.9,704.4,242.9,708.7z"/>
		<path class="st4" d="M279.6,694.8v4.6h8.5l-0.5,2.6h-8v26.3H276v-26.3h-5.6v-2.6h5.6v-4.8c0-4.5,3.3-7.4,8.9-7.4
			c2.8,0,5.1,0.6,7.5,1.5l-1.2,2.4c-2.1-0.8-4.1-1.3-6.1-1.3C281.5,690,279.6,691.4,279.6,694.8z"/>
		<path class="st4" d="M316.7,728.4l-0.2-5.1c-2.3,3.4-5.5,5.8-10.5,5.8c-5.8,0-9.1-3.2-9.1-8.9v-20.7h3.6v20.4
			c0,4.6,2.2,6.5,6.3,6.5c4.2,0,7.2-2.5,9.4-5.9v-21h3.6v28.9H316.7z"/>
		<path class="st4" d="M338.7,726.3c0.7,0,1.5-0.1,2.2-0.4l1,2.4c-1.1,0.4-2.5,0.8-3.8,0.8c-3.4,0-5.5-1.8-5.5-5.6v-35.8l3.6-0.4
			v36.1C336,725.3,336.8,726.3,338.7,726.3z"/>
		<path class="st4" d="M392.4,709.8c0,7.9-4.1,19.2-16.5,19.2c-2.6,0-4.7-0.3-7.2-1.1l-1.7,11.5l-3.6,0.4l6.3-40.4h3l-0.4,4
			c3.2-3.1,6.5-4.6,10.4-4.6C388.9,698.9,392.4,702.8,392.4,709.8z M372,706.4l-2.9,18.8c2,0.7,3.9,1.2,6.8,1.2
			c9.7,0,12.8-10.1,12.8-16.8c0-5.6-2.5-8.1-6.9-8.1C377.8,701.5,374.9,703.6,372,706.4z"/>
		<path class="st4" d="M403.7,717v0.3c0,6.3,3.4,8.9,8.2,8.9c3.4,0,6.1-1,9.1-2.9l1.6,2.3c-3.3,2.2-6.8,3.4-10.9,3.4
			c-7.4,0-11.7-4.2-11.7-11.6c0-8.1,4.7-18.5,16.2-18.5c6.3,0,9.8,3,9.8,7C425.9,713.3,416.8,716.1,403.7,717z M403.9,714.5
			c12-0.8,18.4-3.2,18.4-8.5c0-2.3-1.8-4.4-6.1-4.4C408.2,701.5,404.7,708.3,403.9,714.5z"/>
		<path class="st4" d="M452.6,699.3l-1,3c-0.9-0.2-1.7-0.3-2.6-0.3c-4.7,0-7.7,3.8-10.3,10l-2.6,16.5h-3.5l4.5-28.9h3l-0.9,7
			c2.4-4.9,5.8-7.6,10.3-7.6C450.7,698.9,451.8,699,452.6,699.3z"/>
		<path class="st4" d="M476.4,702.1l-2,2.1c-2.3-1.8-4.8-2.7-7.8-2.7c-4.7,0-7.7,1.9-7.7,4.9c0,2.5,1.8,3.9,7,5.3
			c6.3,1.8,9,4.2,9,8.5c0,5.1-4.8,8.7-12.5,8.7c-5.4,0-8.8-1.8-11.4-3.9l2.2-2c2.4,2,5.3,3.3,9.2,3.3c5.7,0,8.8-2.4,8.8-5.9
			c0-3-1.7-4.5-7.4-6.1c-6.4-1.9-8.6-4.2-8.6-7.7c0-4,4.2-7.7,11.4-7.7C470.5,698.9,473.7,700,476.4,702.1z"/>
		<path class="st4" d="M510.1,710.5c0,7.1-3.9,18.5-16,18.5c-7.5,0-11.7-4.4-11.7-11.7s4-18.4,16.1-18.4
			C505.9,698.9,510.1,703.1,510.1,710.5z M486.1,717.6c0,5.8,2.9,8.7,8,8.7c9.4,0,12.2-9.9,12.2-16c0-5.8-2.8-8.7-8-8.7
			C488.9,701.5,486.1,711.6,486.1,717.6z"/>
		<path class="st4" d="M544.2,707.8l-3.2,20.6h-3.6l3.2-20.3c0.7-4.8-1-6.5-4.9-6.5c-4.4,0-8.5,4.2-11.6,9.5l-2.7,17.3H518l4.5-28.9
			h2.9l-0.8,7.2c3.2-4.8,7.6-7.8,12.2-7.8C542.5,698.9,545.2,702.3,544.2,707.8z"/>
		<path class="st4" d="M580,701.3l-3.5,20.9c-0.1,0.7-0.1,1.3-0.1,1.7c0,1.8,0.7,2.4,2,2.9l-1,2.3c-2.6-0.5-4.3-1.7-4.3-5.3
			c-2.4,3.2-5.8,5.3-9.9,5.3c-6.5,0-10.1-4.3-10.1-11.2c0-7.8,4.4-18.9,16.5-18.9C573.7,698.9,576.6,699.7,580,701.3z M556.8,717.8
			c0,5.6,2.6,8.6,7,8.6c3.9,0,6.9-2.4,9.6-6.1l2.9-17.4c-1.9-0.8-3.9-1.3-6.6-1.3C560.2,701.5,556.8,711.1,556.8,717.8z"/>
		<path class="st4" d="M594.1,726.3c0.8,0,1.5-0.2,2.3-0.4l0.8,2.4c-1.2,0.5-2.5,0.8-3.7,0.8c-3.6,0-5.5-1.9-4.9-6l5.5-35.4l3.6-0.4
			l-5.7,36.2C591.8,725.4,592.3,726.3,594.1,726.3z"/>
		<path class="st4" d="M644.9,701.8l-1.8,2.2c-2.1-1.5-4.2-2.3-7.1-2.3c-5.8,0-10,4.1-10,12.5c0,8.3,4.1,12.1,9.9,12.1
			c3,0,5.2-0.9,7.4-2.5l1.8,2.2c-2.5,1.9-5.6,3.1-9.2,3.1c-8.2,0-13.6-5.5-13.6-14.9c0-9.3,5.3-15.3,13.6-15.3
			C639.4,698.9,642.2,699.7,644.9,701.8z"/>
		<path class="st4" d="M677.6,713.9c0,9.4-5.2,15.2-13.6,15.2c-8.5,0-13.6-5.8-13.6-15.1s5.2-15.1,13.6-15.1
			C672.6,698.9,677.6,704.4,677.6,713.9z M654.2,714c0,8.1,3.6,12.3,9.8,12.3c6.1,0,9.9-4.2,9.9-12.5c0-8.1-3.6-12.3-9.8-12.3
			C658,701.6,654.2,705.7,654.2,714z"/>
		<path class="st4" d="M711.2,707.7v20.7h-3.6v-20.3c0-4.8-2.2-6.7-6.1-6.7c-4.4,0-7.3,2.4-10,6v21h-3.6v-28.9h3.1l0.4,4.9
			c2.5-3.3,6.1-5.5,10.8-5.5C708.1,698.9,711.2,702.1,711.2,707.7z"/>
		<path class="st4" d="M747.1,707.7v20.7h-3.6v-20.3c0-4.8-2.2-6.7-6.1-6.7c-4.4,0-7.3,2.4-10,6v21h-3.6v-28.9h3.1l0.4,4.9
			c2.5-3.3,6.1-5.5,10.8-5.5C744,698.9,747.1,702.1,747.1,707.7z"/>
		<path class="st4" d="M782.5,715.2h-21.4c0.4,7.9,4.5,11.1,10,11.1c3.5,0,5.8-1,8.7-2.9l1.7,2c-3,2.2-6.3,3.5-10.5,3.5
			c-8.5,0-13.6-5.5-13.6-14.8c0-9.2,5-15.3,12.8-15.3c8.4,0,12.5,5.5,12.5,14C782.6,713.8,782.6,714.7,782.5,715.2z M779.1,711.9
			c0-6.3-2.8-10.3-8.9-10.3c-5,0-8.8,3.3-9.2,11.2h18.1V711.9z"/>
		<path class="st4" d="M813,701.8l-1.8,2.2c-2.1-1.5-4.2-2.3-7.1-2.3c-5.8,0-10,4.1-10,12.5c0,8.3,4.1,12.1,9.9,12.1
			c3,0,5.2-0.9,7.4-2.5l1.8,2.2c-2.5,1.9-5.6,3.1-9.2,3.1c-8.2,0-13.6-5.5-13.6-14.9c0-9.3,5.3-15.3,13.6-15.3
			C807.5,698.9,810.3,699.7,813,701.8z"/>
		<path class="st4" d="M829.6,729c-4.9,0-7.9-2.6-7.9-7.6v-19.3h-5.4v-2.6h5.4v-6.9l3.6-0.4v7.3h8.3l-0.4,2.6h-7.9v19.1
			c0,3.4,1.5,5,4.7,5c1.8,0,3.3-0.4,4.9-1.3l1.4,2.3C834.3,728.4,832.1,729,829.6,729z"/>
		<path class="st4" d="M847.1,689.1c0,1.3-1,2.3-2.7,2.3c-1.6,0-2.6-1.1-2.6-2.3c0-1.3,1-2.3,2.6-2.3
			C846,686.8,847.1,687.8,847.1,689.1z M842.6,728.4v-28.9h3.6v28.9H842.6z"/>
		<path class="st4" d="M883.9,713.9c0,9.4-5.2,15.2-13.6,15.2c-8.5,0-13.6-5.8-13.6-15.1s5.2-15.1,13.6-15.1
			C878.8,698.9,883.9,704.4,883.9,713.9z M860.5,714c0,8.1,3.6,12.3,9.8,12.3c6.1,0,9.9-4.2,9.9-12.5c0-8.1-3.6-12.3-9.8-12.3
			C864.2,701.6,860.5,705.7,860.5,714z"/>
		<path class="st4" d="M917.5,707.7v20.7h-3.6v-20.3c0-4.8-2.2-6.7-6.1-6.7c-4.4,0-7.3,2.4-10,6v21h-3.6v-28.9h3.1l0.4,4.9
			c2.5-3.3,6.1-5.5,10.8-5.5C914.3,698.9,917.5,702.1,917.5,707.7z"/>
		<path class="st4" d="M948.3,702.1l-1.7,2.2c-2.8-1.8-5.2-2.7-8.4-2.7c-4.2,0-7.1,1.9-7.1,4.9c0,2.9,2,4.1,7.8,5.5
			c7,1.7,10.3,3.8,10.3,8.7c0,5.4-5.2,8.4-11.6,8.4c-5.2,0-8.7-1.6-11.5-3.7l2-2.1c2.6,2,5.5,3.1,9.4,3.1c4.7,0,7.9-2,7.9-5.5
			c0-3.5-1.8-4.8-8.5-6.5c-6.8-1.6-9.6-3.9-9.6-8c0-4.4,4.6-7.5,10.7-7.5C942.2,698.9,945.3,700,948.3,702.1z"/>
		<path class="st4" d="M961.5,726.4c0,1.5-1.2,2.7-2.9,2.7c-1.7,0-2.9-1.2-2.9-2.7c0-1.4,1.3-2.6,2.9-2.6
			C960.3,723.8,961.5,724.9,961.5,726.4z"/>
		<path class="st4" d="M377.1,794.5l-3.7,10.3h-3.7l14.1-37.9h4.6l14,37.9h-3.9l-3.7-10.3H377.1z M386,769.6l-7.9,22h15.7L386,769.6
			z"/>
		<path class="st4" d="M433.1,784.1v20.7h-3.6v-20.3c0-4.8-2.1-6.7-6.1-6.7c-4.4,0-7.3,2.4-10,6v21h-3.6v-28.9h3.1l0.4,4.9
			c2.5-3.3,6.1-5.5,10.8-5.5C429.9,775.3,433.1,778.5,433.1,784.1z"/>
		<path class="st4" d="M442.3,816.1l-0.4-2.5c6.5-1.4,8-3.7,10.1-8.8h-1.2l-11.2-28.9h3.9l9.7,26.6l9.5-26.6h3.7l-11,29.1
			C453,811.2,450.2,814.7,442.3,816.1z"/>
		<path class="st4" d="M496.1,804.8l-7.1-26l-7.2,26H477l-8-28.9h3.7l6.9,26.5l7.5-26.5h4.1l7.4,26.5l6.8-26.5h3.5l-7.9,28.9H496.1z
			"/>
		<path class="st4" d="M540,784.1v20.7h-3.6v-20.3c0-4.7-2.2-6.7-6.1-6.7c-4.4,0-7.3,2.4-10,6v21h-3.6v-40.7l3.6-0.4v17
			c2.6-3.3,6-5.4,10.6-5.4C536.8,775.3,540,778.6,540,784.1z"/>
		<path class="st4" d="M575.4,791.6h-21.4c0.4,7.9,4.5,11.1,10,11.1c3.5,0,5.8-1,8.7-2.9l1.7,2c-3,2.2-6.3,3.5-10.5,3.5
			c-8.5,0-13.6-5.5-13.6-14.8c0-9.2,5-15.3,12.8-15.3c8.4,0,12.5,5.5,12.5,14C575.5,790.1,575.4,791,575.4,791.6z M572,788.3
			c0-6.3-2.8-10.3-8.9-10.3c-5,0-8.8,3.3-9.2,11.2H572V788.3z"/>
		<path class="st4" d="M601.4,775.6l-0.7,3c-0.9-0.2-1.7-0.3-2.8-0.3c-4.5,0-6.9,2.9-8.6,8.8v17.7h-3.6v-28.9h3.1l0.3,6.5
			c1.7-4.8,4.6-7.1,9.1-7.1C599.4,775.3,600.6,775.4,601.4,775.6z"/>
		<path class="st4" d="M630.7,791.6h-21.4c0.4,7.9,4.5,11.1,10,11.1c3.5,0,5.8-1,8.7-2.9l1.7,2c-3,2.2-6.3,3.5-10.5,3.5
			c-8.5,0-13.6-5.5-13.6-14.8c0-9.2,5-15.3,12.8-15.3c8.4,0,12.5,5.5,12.5,14C630.8,790.1,630.8,791,630.7,791.6z M627.3,788.3
			c0-6.3-2.8-10.3-8.9-10.3c-5,0-8.8,3.3-9.2,11.2h18.1V788.3z"/>
		<path class="st4" d="M643.9,802.8c0,1.5-1.2,2.7-2.9,2.7c-1.7,0-2.9-1.2-2.9-2.7c0-1.4,1.3-2.6,2.9-2.6
			C642.7,800.2,643.9,801.3,643.9,802.8z"/>
	</g>
</g>
<g id="company_x5F_name">
	<g>
		<path class="st4" d="M218,488l-20.3,26.5c-13.2-14.8-28-27.4-54.7-27.4c-38,0-62.1-26.7-62.1-74.2c0-46.5,24.1-74.6,64.2-74.6
			c40.3,0,64.4,27.1,64.4,74.6c0,34.5-16,52.4-33.5,62.1C194.4,475,206.5,479.8,218,488z M145,463.1c19.3,0,29-14,29-50.2
			c0-36-9.9-50-29-50c-18.9,0-28.8,14-28.8,50C116.2,449.1,126.5,463.1,145,463.1z"/>
		<path class="st4" d="M292.6,484.3l-1.4-13.8c-8,11.5-18.7,17.3-33.1,17.3c-20.4,0-30.4-13.2-30.4-34.3v-78.4h32.5v74.2
			c0,11.1,3.7,14.4,10.5,14.4c6.8,0,13-4.5,17.7-12.7v-75.9h32.5v109.2H292.6z"/>
		<path class="st4" d="M381.6,336c0,10.5-8,18.5-19.3,18.5c-11.3,0-19.1-8-19.1-18.5s7.8-18.5,19.1-18.5
			C373.6,317.5,381.6,325.5,381.6,336z M346.2,484.3V375.1h32.5v109.2H346.2z"/>
		<path class="st4" d="M404.2,484.3V331.7l32.5-3.5v156.1H404.2z M506.8,484.3h-36.6l-32.5-59.6l33.3-49.6h33.1L471,423L506.8,484.3
			z"/>
		<path class="st4" d="M522.4,484.3V341.8h33.7v142.5H522.4z"/>
		<path class="st4" d="M676.4,404.5v79.8h-32.5v-74.2c0-11.5-3.9-14.6-10.3-14.6c-7.2,0-13.2,5.1-18.9,14.2v74.6h-32.5V375.1h28.4
			l2.3,13c9.3-10.9,19.7-16.4,33.3-16.4C665.1,371.6,676.4,383.7,676.4,404.5z"/>
		<path class="st4" d="M735.6,487.8c-24.1-0.2-35.8-13.8-35.8-39.5v-50.6h-15.4v-22.6h15.4v-23.6l32.5-3.7v27.4h25.1l-3.5,22.6
			h-21.6v50.2c0,10.5,3.5,14.2,10.3,14.2c3.7,0,7.4-1,11.7-3.7l10.9,20.8C757,484.9,745.4,487.8,735.6,487.8z"/>
		<path class="st4" d="M850.3,373.5l-5.1,31.5c-3.5-0.8-6.2-1.4-9.9-1.4c-13.6,0-19.1,10.1-22.6,26.7v54.1h-32.5V375.1h28.4
			l2.7,21.2c4.9-15.2,15.6-24.3,28.2-24.3C843.5,372,846.8,372.4,850.3,373.5z"/>
		<path class="st4" d="M961.3,429.8c0,35-20.2,58-53.5,58c-33.1,0-53.5-21.4-53.5-58.2c0-35,20.1-58,53.5-58S961.3,393,961.3,429.8z
			 M888.1,429.6c0,24.3,6.6,34.3,19.7,34.3s19.7-10.5,19.7-34.1c0-24.3-6.6-34.3-19.7-34.3S888.1,405.9,888.1,429.6z"/>
	</g>
</g>
</svg>
